<svg width="24" height="22" viewBox="-1.5 0 24 22" fill="none" xmlns="http://www.w3.org/2000/svg">
<g id="Edit 3">
<path id="Union" fill-rule="evenodd" clip-rule="evenodd" d="M17.7878 0.720099C16.8231 -0.240546 15.2597 -0.239958 14.2957 0.721415L6.8403 8.15835C6.24401 8.75305 5.89344 9.54915 5.85796 10.3891L5.75182 12.9018C5.7035 14.046 6.62117 14.9998 7.77025 14.9999L10.2424 15C11.15 15 12.0192 14.6349 12.6529 13.9874L20.0484 6.40804C20.9925 5.44344 20.9826 3.90152 20.0261 2.94907L17.7878 0.720099ZM15.2485 1.67018C15.6866 1.23319 16.3973 1.23293 16.8358 1.66958L19.0741 3.89856C19.5088 4.33149 19.5134 5.03236 19.0842 5.47082L17.5989 6.98837L13.7546 3.16008L15.2485 1.67018ZM12.8026 4.10956L7.79304 9.10711C7.43526 9.46393 7.22492 9.9416 7.20363 10.4456L7.0975 12.9583C7.08139 13.3397 7.38728 13.6576 7.77031 13.6576L10.2424 13.6577C10.787 13.6578 11.3085 13.4387 11.6888 13.0502L16.6584 7.94931L12.8026 4.10956Z" fill="white"/>
<path id="Rectangle 74 (Stroke)" fill-rule="evenodd" clip-rule="evenodd" d="M5.89744 2.78846C3.49004 2.78846 1.53846 4.74004 1.53846 7.14744V15.3526C1.53846 17.76 3.49004 19.7115 5.89744 19.7115H14.1026C16.51 19.7115 18.4615 17.76 18.4615 15.3526V11.25C18.4615 10.8252 18.8059 10.4808 19.2308 10.4808C19.6556 10.4808 20 10.8252 20 11.25V15.3526C20 18.6096 17.3596 21.25 14.1026 21.25H5.89744C2.64037 21.25 0 18.6096 0 15.3526V7.14744C0 3.89037 2.64037 1.25 5.89744 1.25H10C10.4248 1.25 10.7692 1.5944 10.7692 2.01923C10.7692 2.44407 10.4248 2.78846 10 2.78846H5.89744Z" fill="white"/>
</g>
</svg>
