<svg width="48" height="30" viewBox="-4 0 48 30" fill="none" xmlns="http://www.w3.org/2000/svg">
<path fill-rule="evenodd" clip-rule="evenodd" d="M7.0615 8.90625C7.91246 11.6274 10.3653 13.5938 13.2584 13.5938C16.1516 13.5938 18.6044 11.6274 19.4554 8.90625C25.6294 8.90625 31.8035 8.90625 37.9775 8.90625C39.0945 8.90625 40 7.96185 40 6.79688C40 5.6319 39.0945 4.6875 37.9775 4.6875C31.8035 4.6875 25.6294 4.6875 19.4554 4.6875C19.4335 4.61634 19.4628 4.71116 19.4554 4.6875C18.6044 1.96631 16.1516 0 13.2584 0C10.3653 0 7.91246 1.96631 7.0615 4.6875C5.38182 4.6875 3.70215 4.6875 2.02247 4.6875C0.905492 4.6875 0 5.6319 0 6.79688C0 7.96185 0.905492 8.90625 2.02247 8.90625C3.70215 8.90625 5.38182 8.90625 7.0615 8.90625ZM13.2584 4.21875C11.8932 4.21875 10.7865 5.37302 10.7865 6.79688C10.7865 8.22073 11.8932 9.375 13.2584 9.375C14.6236 9.375 15.7303 8.22073 15.7303 6.79688C15.7303 5.37302 14.6236 4.21875 13.2584 4.21875Z" fill="#149AD6"/>
<path fill-rule="evenodd" clip-rule="evenodd" d="M0 23.2031C0 22.0381 0.905492 21.0938 2.02247 21.0938C8.19653 21.0938 14.3706 21.0938 20.5446 21.0938C21.3956 18.3726 23.8484 16.4062 26.7416 16.4062C29.6347 16.4062 32.0875 18.3726 32.9385 21.0938C32.9385 21.0938 36.8058 21.0938 37.9775 21.0938C39.0945 21.0938 40 22.0381 40 23.2031C40 24.3681 39.0945 25.3125 37.9775 25.3125C37.4781 25.3125 32.9385 25.3125 32.9385 25.3125C32.0875 28.0337 29.6347 30 26.7416 30C23.8484 30 21.3956 28.0337 20.5446 25.3125C14.3706 25.3125 8.19653 25.3125 2.02247 25.3125C0.905492 25.3125 0 24.3681 0 23.2031ZM24.2697 23.2031C24.2697 21.7793 25.3764 20.625 26.7416 20.625C28.1068 20.625 29.2135 21.7793 29.2135 23.2031C29.2135 24.627 28.1068 25.7812 26.7416 25.7812C25.3764 25.7812 24.2697 24.627 24.2697 23.2031Z" fill="#149AD6"/>
</svg>
