<svg width="152" height="56" viewBox="0 0 152 56" fill="none" xmlns="http://www.w3.org/2000/svg">
<g id="&#208;&#155;&#208;&#190;&#208;&#179;&#208;&#190;" clip-path="url(#clip0_332_3456)">
<g id="&#208;&#155;&#208;&#158;&#208;&#147;&#208;&#158;">
<path d="M10.8445 0L13.3631 14.1337C13.9014 16.9986 14.1725 21.8614 14.5419 25.1656H14.6322C14.9898 22.0065 15.3513 16.6128 15.811 14.1337L18.3257 0H29.1702V34.8987H21.7323V22.6483C21.7323 19.2944 21.9562 10.352 22.1252 7.43736H22.082L17.2648 34.8987H11.8779L7.06465 7.43736H7.0175C7.15503 9.86683 7.41042 17.8848 7.41042 22.6024V34.8987H0V0H10.8445Z" fill="#4C4C4C"/>
<path d="M47.7158 34.8949H40.5607V6.60845H32.7731V0H57.1811V6.60845H47.7158V34.8949Z" fill="#4C4C4C"/>
<path d="M53.9593 12.6788V40.9653H0V47.2223H60.3993V12.6788H53.9593Z" fill="white"/>
<path d="M82.9919 19.0001V47.2675H78.5873V34.9101H71.1534V47.2675H66.7409V19.0001C66.7409 15.2948 70.061 12.6744 74.8979 12.6744C79.6718 12.6935 82.9919 15.2948 82.9919 19.0001ZM71.1534 31.8503H78.5873V19.0001C78.5873 16.9756 77.1453 15.6883 74.9057 15.6883C72.5954 15.6883 71.1534 16.9756 71.1534 19.0001V31.8503Z" fill="white"/>
<path d="M151.933 22.58L145.949 22.6259V15.6087H141.914V22.6106H139.906V25.9072H141.914V47.291H145.949V25.9263L152 25.8843L151.933 22.58Z" fill="white"/>
<path d="M136.122 29.5017C136.116 28.239 135.762 27.0011 135.095 25.9173C134.429 24.8336 133.475 23.9438 132.334 23.341C131.192 22.7382 129.906 22.4446 128.608 22.4908C127.31 22.537 126.048 22.9214 124.955 23.6038V22.4845H121.627V47.2834H124.955V29.5017C124.955 28.4967 125.366 27.5329 126.097 26.8222C126.828 26.1116 127.819 25.7124 128.853 25.7124C129.887 25.7124 130.878 26.1116 131.609 26.8222C132.34 27.5329 132.751 28.4967 132.751 29.5017V47.2758H136.126V29.5017H136.122Z" fill="white"/>
<path d="M97.6007 22.9425V24.0884C96.4817 23.3886 95.1897 22.994 93.86 22.9461C92.5304 22.8981 91.2119 23.1986 90.0427 23.816C88.8734 24.4333 87.8963 25.345 87.2138 26.4554C86.5312 27.5658 86.1682 28.8342 86.1629 30.1277V40.1015C86.1675 41.3954 86.53 42.6643 87.2123 43.7752C87.8946 44.8862 88.8716 45.7983 90.0409 46.4162C91.2103 47.034 92.5291 47.3348 93.8591 47.287C95.1891 47.2392 96.4814 46.8446 97.6007 46.1446V48.8185C97.6172 49.324 97.5291 49.8276 97.3416 50.2993C97.154 50.771 96.8709 51.2013 96.509 51.5645C96.147 51.9278 95.7137 52.2166 95.2347 52.4138C94.7557 52.611 94.2408 52.7127 93.7206 52.7127C93.2004 52.7127 92.6856 52.611 92.2066 52.4138C91.7276 52.2166 91.2942 51.9278 90.9323 51.5645C90.5704 51.2013 90.2872 50.771 90.0997 50.2993C89.9121 49.8276 89.824 49.324 89.8406 48.8185H86.3868C86.3955 50.6969 87.1572 52.498 88.5102 53.839C89.8631 55.18 91.7006 55.9553 93.6322 56H93.809C95.7406 55.9553 97.5781 55.18 98.9311 53.839C100.284 52.498 101.046 50.6969 101.054 48.8185V37.8401L101.106 30.1659V22.9501L97.6007 22.9425ZM97.6007 40.0939C97.6007 41.1232 97.1801 42.1103 96.4314 42.8382C95.6828 43.566 94.6674 43.9749 93.6086 43.9749C92.5499 43.9749 91.5345 43.566 90.7859 42.8382C90.0372 42.1103 89.6166 41.1232 89.6166 40.0939V30.1392C89.6166 29.1099 90.0372 28.1227 90.7859 27.3949C91.5345 26.667 92.5499 26.2582 93.6086 26.2582C94.6674 26.2582 95.6828 26.667 96.4314 27.3949C97.1801 28.1227 97.6007 29.1099 97.6007 30.1392V40.0939Z" fill="white"/>
<path d="M111.368 39.3646C115.16 39.3646 118.288 37.2675 118.288 34.6279V27.2096C118.288 24.5662 115.144 22.4271 111.368 22.4271C107.506 22.4271 104.382 24.5662 104.382 27.2096V30.8997L104.316 42.516V42.5618C104.316 45.1556 107.439 47.2985 111.235 47.2985C115.093 47.2985 118.221 45.1556 118.221 42.516V40.373H114.225V42.516C114.225 43.662 112.893 44.5635 111.231 44.5635C109.632 44.5635 108.304 43.6543 108.304 42.516V38.9177C109.291 39.2356 110.328 39.3867 111.368 39.3646ZM108.39 27.2096C108.39 26.0636 109.718 25.1621 111.384 25.1621C112.979 25.1621 114.311 26.0713 114.311 27.2096V34.6355C114.311 35.728 112.979 36.641 111.384 36.641C109.718 36.641 108.39 35.728 108.39 34.6355V27.2096Z" fill="white"/>
</g>
</g>
<defs>
<clipPath id="clip0_332_3456">
<rect width="152" height="56" fill="white"/>
</clipPath>
</defs>
</svg>
